<svg class="border shadow-md" viewBox="0 0 604.5600000000001 604.5600000000001" style="width: 604.56px; height: 604.56px;" xmlns="http://www.w3.org/2000/svg" preserveAspectRatio="none"><rect class="bg" id="bg" x="0" y="0" width="604.5600000000001" height="604.5600000000001" fill="#ffffff"/><g transform="rotate(23 302.28000000000003 302.28000000000003)"><path d="M -201.52 334.56 S -154.00 302.56&#10;            0.00 334.56 90.76 290.56&#10;            201.52 334.56 292.28 85.56&#10;            403.04 334.56 493.80 187.56&#10;            604.56 334.56 695.32 199.56&#10;            806.08 334.56 h 110 V 1204.56 H -201.52 Z" fill="#FFEC01"/><path d="M -201.52 295.00 S -110.76 157.50&#10;            0.00 295.00 72.52 157.50&#10;            201.52 295.00 268.04 157.50&#10;            403.04 295.00 493.80 157.50&#10;            604.56 295.00 601.08 93.00&#10;            806.08 295.00 h 110 V -600 H -201.52 Z" fill="#1D1D1D"/></g></svg>