<svg class="border shadow-md" viewBox="0 0 604.5600000000001 604.5600000000001" style="width: 604.56px; height: 604.56px;" xmlns="http://www.w3.org/2000/svg" preserveAspectRatio="none"><rect class="bg" id="bg" x="0" y="0" width="604.5600000000001" height="604.5600000000001" fill="#ffffff"/><g transform="rotate(170 302.28000000000003 302.28000000000003)"><path d="M -201.52 334.56 S -150.00 246.56&#10;            0.00 334.56 90.76 146.56&#10;            201.52 334.56 292.28 261.56&#10;            403.04 334.56 440.56 203.56&#10;            604.56 334.56 684.08 213.56&#10;            806.08 334.56 h 110 V 1204.56 H -201.52 Z" fill="#FFEC01"/><path d="M -201.52 295.00 S -132.00 157.50&#10;            0.00 295.00 28.52 157.50&#10;            201.52 295.00 270.04 157.50&#10;            403.04 295.00 463.56 116.00&#10;            604.56 295.00 602.08 157.50&#10;            806.08 295.00 h 110 V -600 H -201.52 Z" fill="#1D1D1D"/></g></svg>