<svg width="15" height="15" viewBox="0 0 15 15" fill="none" xmlns="http://www.w3.org/2000/svg">
<path d="M1.50001 3.87515C1.66578 3.87495 1.82481 3.94082 1.94191 4.05825L7.49978 9.61637L13.0577 4.05812C13.2155 3.90026 13.4456 3.8386 13.6613 3.8964C13.8769 3.95416 14.0454 4.12262 14.1032 4.3383C14.161 4.55398 14.0993 4.78405 13.9415 4.94196L7.94171 10.942C7.82227 11.0549 7.66412 11.1177 7.49981 11.1177C7.33546 11.1177 7.17734 11.0548 7.05791 10.942L1.05815 4.94196C0.940967 4.82472 0.875143 4.66579 0.875143 4.50006C0.875143 4.33429 0.940962 4.17535 1.05815 4.05816C1.17535 3.94097 1.33428 3.8751 1.50001 3.87506L1.50001 3.87515Z" fill="white"/>
</svg>
