<svg width="1600" height="1600" viewBox="0 0 1600 1600" fill="none" xmlns="http://www.w3.org/2000/svg">
<rect x="342" y="392" width="896" height="823" fill="white"/>
<path fill-rule="evenodd" clip-rule="evenodd" d="M1309.12 290.88C1027.93 9.69331 572.067 9.69331 290.867 290.88C9.67989 572.067 9.67989 1027.93 290.867 1309.13C572.053 1590.32 1027.92 1590.32 1309.12 1309.13C1590.31 1027.95 1590.31 572.08 1309.12 290.88ZM1105.49 1037.57C1150.18 1082.26 1082.31 1150.14 1037.62 1105.45L799.992 867.875L562.419 1105.5C517.731 1150.19 449.856 1082.31 494.544 1037.63L732.117 800L494.491 562.427C449.803 517.739 517.679 449.864 562.365 494.552L799.992 732.125L1037.57 494.552C1082.25 449.864 1150.13 517.74 1105.44 562.427L867.867 800L1105.49 1037.57Z" fill="black"/>
</svg>
