<svg width="50" height="50" viewBox="0 0 50 50" fill="none" xmlns="http://www.w3.org/2000/svg">
<g clip-path="url(#clip0_5339_1204)">
<path d="M49.9996 25.0002C49.9996 33.9319 45.2346 42.1852 37.4996 46.651C29.7646 51.1169 20.2346 51.1169 12.4996 46.651C4.76463 42.1852 -0.000366211 33.9319 -0.000366211 25.0002C-0.000366211 16.0685 4.76463 7.81521 12.4996 3.34938C20.2346 -1.11646 29.7646 -1.11646 37.4996 3.34938C45.2346 7.81521 49.9996 16.0685 49.9996 25.0002Z" fill="black"/>
<path d="M32.8717 10.2402H17.1275C15.301 10.2427 13.5509 10.9684 12.2592 12.2599C10.9677 13.5514 10.242 15.3018 10.2395 17.1283V32.8724C10.2419 34.6989 10.9677 36.4491 12.2592 37.7408C13.5507 39.0323 15.301 39.758 17.1275 39.7605H32.8717C34.6982 39.758 36.4484 39.0323 37.74 37.7408C39.0315 36.4493 39.7573 34.6989 39.7598 32.8724V17.1283C39.7573 15.3018 39.0315 13.5516 37.74 12.2599C36.4485 10.9684 34.6982 10.2427 32.8717 10.2402ZM37.7917 32.8723C37.7904 34.1762 37.2714 35.427 36.349 36.3495C35.4265 37.2721 34.1757 37.7911 32.8718 37.7922H17.1276C15.8238 37.7909 14.573 37.2719 13.6504 36.3495C12.7279 35.427 12.2088 34.1762 12.2077 32.8723V17.1282C12.209 15.8243 12.728 14.5735 13.6504 13.6509C14.573 12.7284 15.8238 12.2094 17.1276 12.2082H32.8718C34.1757 12.2095 35.4265 12.7286 36.349 13.6509C37.2715 14.5735 37.7906 15.8243 37.7917 17.1282V32.8723ZM24.9996 18.1123C23.1731 18.1123 21.4204 18.8381 20.1288 20.1296C18.8371 21.4211 18.1115 23.1738 18.1115 25.0004C18.1115 26.827 18.8373 28.5797 20.1288 29.8712C21.4203 31.1629 23.173 31.8885 24.9996 31.8885C26.8262 31.8885 28.5789 31.1627 29.8705 29.8712C31.162 28.5797 31.8877 26.827 31.8877 25.0004C31.8853 23.1739 31.1595 21.4237 29.868 20.1321C28.5765 18.8406 26.8262 18.1148 24.9997 18.1124L24.9996 18.1123ZM24.9996 29.9202C23.6946 29.9202 22.4436 29.4025 21.5211 28.4787C20.5975 27.5561 20.0795 26.3053 20.0795 25.0002C20.0795 23.6952 20.5973 22.4441 21.5211 21.5217C22.4437 20.598 23.6945 20.0801 24.9996 20.0801C26.3046 20.0801 27.5556 20.5978 28.4781 21.5217C29.4018 22.4442 29.9197 23.695 29.9197 25.0002C29.9184 26.304 29.3994 27.5548 28.477 28.4774C27.5545 29.3999 26.3037 29.9189 24.9998 29.9201L24.9996 29.9202ZM35.0855 16.6361C35.0855 17.3322 34.666 17.9608 34.0228 18.2264C33.3795 18.4933 32.6379 18.3457 32.1458 17.8537C31.6538 17.3617 31.5062 16.62 31.7731 15.9767C32.0387 15.3335 32.6673 14.9141 33.3634 14.9141C34.3143 14.9141 35.0855 15.6852 35.0855 16.6361Z" fill="white"/>
</g>
<defs>
<clipPath id="clip0_5339_1204">
<rect width="50" height="50" fill="white" transform="translate(-0.000366211)"/>
</clipPath>
</defs>
</svg>
