<svg width="50" height="50" viewBox="0 0 50 50" fill="none" xmlns="http://www.w3.org/2000/svg">
<g clip-path="url(#clip0_5339_1208)">
<path d="M49.9999 25.0002C49.9999 33.9319 45.2349 42.1852 37.4999 46.651C29.7649 51.1169 20.2349 51.1169 12.4999 46.651C4.76494 42.1852 -6.10352e-05 33.9319 -6.10352e-05 25.0002C-6.10352e-05 16.0685 4.76494 7.81521 12.4999 3.34938C20.2349 -1.11646 29.7649 -1.11646 37.4999 3.34938C45.2349 7.81521 49.9999 16.0685 49.9999 25.0002Z" fill="black"/>
<path d="M35.037 14.8651C34.8894 14.7666 34.7418 14.7666 34.5941 14.8159C33.3641 15.3571 32.0849 14.9635 31.3469 13.9795C31.0025 13.5366 30.8057 12.9463 30.8057 12.4051C30.8057 12.2575 30.7566 12.1592 30.6581 12.0607C30.5596 11.9622 30.4613 11.9131 30.3137 11.9131H25.2954C25.0001 11.9131 24.8033 12.1099 24.8033 12.4051V29.871V29.9694C24.7049 30.855 24.016 31.4946 23.1305 31.4946C22.1957 31.4946 21.4085 30.7073 21.4085 29.7726C21.4085 28.8871 22.0482 28.1983 22.9337 28.0998C23.1796 28.0507 23.3766 27.8539 23.3766 27.6078V21.9007C23.3766 21.6054 23.1798 21.4086 22.8845 21.4086H22.7861C18.2598 21.6054 14.7665 25.2462 14.7665 29.7728C14.7665 34.3978 18.5057 38.137 23.1306 38.137C27.4602 38.137 31.1011 34.7914 31.4452 30.5111C31.4944 30.462 31.4944 30.3635 31.4944 30.3144L31.4945 20.8185C32.5769 21.0645 33.7086 21.1629 34.8894 20.9662C35.1354 20.917 35.283 20.7202 35.283 20.4741V15.2591C35.283 15.1115 35.1846 14.9634 35.037 14.8651ZM34.2989 20.0801C33.1672 20.1785 32.134 20.0801 31.1008 19.7357C30.9532 19.6865 30.8056 19.7357 30.6579 19.7848C30.5103 19.8833 30.4612 20.0307 30.4612 20.1784V30.1167C30.4612 30.1659 30.4612 30.2152 30.412 30.2643C30.1661 34.1019 26.9188 37.1522 23.0812 37.1522C18.9975 37.1522 15.7012 33.8559 15.7012 29.7722C15.7012 25.9347 18.5548 22.7856 22.3433 22.4414V27.2139C21.2116 27.5583 20.3753 28.5915 20.3753 29.7723C20.3753 31.2484 21.6053 32.4784 23.0814 32.4784C24.4098 32.4784 25.5413 31.4943 25.7381 30.2152C25.7873 30.166 25.7873 30.0676 25.7873 30.0184L25.7874 12.8968H29.8711C29.9696 13.5364 30.2155 14.0776 30.5599 14.5696C31.3963 15.7013 32.8722 16.2916 34.2992 15.9472L34.2989 20.0801Z" fill="white" stroke="white" stroke-width="0.5"/>
</g>
<defs>
<clipPath id="clip0_5339_1208">
<rect width="50" height="50" fill="white"/>
</clipPath>
</defs>
</svg>
