<svg width="18" height="18" viewBox="0 0 18 18" fill="none" xmlns="http://www.w3.org/2000/svg">
<g clip-path="url(#clip0_5629_1225)">
<path d="M9 0C4.02187 0 0 4.03228 0 9C0 13.9781 4.03228 18 9 18C13.9781 18 18 13.9677 18 9C18 4.03228 13.9677 0 9 0ZM13.1287 12.9892C12.9676 13.2581 12.6233 13.3332 12.3545 13.1721C10.2361 11.8817 7.58025 11.5914 4.44009 12.301C4.13916 12.3657 3.83822 12.1829 3.77353 11.882C3.70884 11.581 3.89166 11.2801 4.19259 11.2154C7.62272 10.4307 10.5685 10.7637 12.9344 12.2155C12.9981 12.2535 13.0537 12.3037 13.098 12.3632C13.1422 12.4227 13.1743 12.4904 13.1923 12.5624C13.2102 12.6344 13.2138 12.7092 13.2028 12.7825C13.1917 12.8559 13.1663 12.9263 13.1279 12.9898L13.1287 12.9892ZM14.2256 10.5376C14.0214 10.8709 13.5911 10.9679 13.2581 10.7738C10.8388 9.28997 7.1505 8.85994 4.29047 9.72C3.91416 9.82744 3.52716 9.62325 3.41944 9.25763C3.312 8.88131 3.51619 8.49431 3.8925 8.38659C7.16119 7.39744 11.2258 7.8705 14.0108 9.58022C14.3333 9.77372 14.4298 10.2037 14.2259 10.5373L14.2256 10.5376ZM14.3224 7.97822C11.419 6.25781 6.63413 6.09666 3.85987 6.93534C3.41887 7.07513 2.94581 6.81722 2.80603 6.37622C2.66625 5.93522 2.92416 5.46216 3.36516 5.32237C6.54806 4.35488 11.8384 4.54809 15.172 6.52669C15.57 6.76294 15.6988 7.27931 15.4623 7.677C15.2471 8.08566 14.7203 8.21475 14.3224 7.97794V7.97822Z" fill="black"/>
</g>
<defs>
<clipPath id="clip0_5629_1225">
<rect width="18" height="18" fill="white"/>
</clipPath>
</defs>
</svg>
