<svg width="16" height="20" viewBox="0 0 16 20" fill="none" xmlns="http://www.w3.org/2000/svg">
<path d="M14.9136 3.02622C14.8123 2.95863 14.711 2.95863 14.6096 2.99249C13.7654 3.36394 12.8873 3.09381 12.3807 2.41837C12.1444 2.11438 12.0093 1.70918 12.0093 1.33773C12.0093 1.2364 11.9756 1.16892 11.908 1.10133C11.8404 1.03374 11.7729 1 11.6716 1H8.227C8.02434 1 7.88926 1.13507 7.88926 1.33774V13.3262V13.3938C7.82167 14.0017 7.34887 14.4407 6.74103 14.4407C6.09942 14.4407 5.55906 13.9003 5.55906 13.2587C5.55906 12.6509 5.99812 12.1781 6.60596 12.1105C6.77476 12.0768 6.90995 11.9417 6.90995 11.7728V7.85546C6.90995 7.6528 6.77488 7.51772 6.57221 7.51772H6.50462C3.39781 7.65279 1 10.1518 1 13.2589C1 16.4334 3.56661 19 6.74114 19C9.71295 19 12.212 16.7036 12.4482 13.7657C12.482 13.7319 12.482 13.6643 12.482 13.6306L12.4821 7.11267C13.225 7.28148 14.0018 7.34907 14.8123 7.214C14.9811 7.18026 15.0825 7.04519 15.0825 6.87626V3.2967C15.0825 3.19537 15.015 3.0937 14.9136 3.02622ZM14.407 6.60579C13.6302 6.67338 12.921 6.60579 12.2118 6.36939C12.1105 6.33565 12.0092 6.36939 11.9078 6.40313C11.8065 6.47072 11.7728 6.57193 11.7728 6.67326V13.4949C11.7728 13.5286 11.7728 13.5625 11.739 13.5962C11.5702 16.2303 9.34134 18.3241 6.70718 18.3241C3.90416 18.3241 1.64157 16.0615 1.64157 13.2585C1.64157 10.6244 3.60032 8.46284 6.20067 8.22661V11.5024C5.4239 11.7388 4.8499 12.448 4.8499 13.2585C4.8499 14.2717 5.69417 15.1159 6.70732 15.1159C7.61917 15.1159 8.39583 14.4405 8.53091 13.5625C8.56465 13.5288 8.56465 13.4612 8.56465 13.4274L8.56476 1.67519H11.3678C11.4354 2.11425 11.6042 2.48571 11.8406 2.82341C12.4147 3.60019 13.4277 4.00539 14.4072 3.76898L14.407 6.60579Z" fill="white" stroke="white" stroke-width="0.5"/>
</svg>
